<?xml version="1.0" standalone="no"?>
<!DOCTYPE svg PUBLIC "-//W3C//DTD SVG 20010904//EN"
 "http://www.w3.org/TR/2001/REC-SVG-20010904/DTD/svg10.dtd">
<svg version="1.0" xmlns="http://www.w3.org/2000/svg"
 width="547.000000pt" height="456.000000pt" viewBox="0 0 547.000000 456.000000"
 preserveAspectRatio="xMidYMid meet">

<g transform="translate(0.000000,456.000000) scale(0.100000,-0.100000)"
fill="#000000" stroke="none">
<path d="M2682 4334 c-12 -8 -28 -30 -36 -48 -20 -47 -343 -488 -591 -806 -45
-58 -203 -260 -350 -450 -147 -190 -280 -360 -295 -378 l-27 -33 -414 106
c-228 59 -456 117 -508 131 -130 34 -184 32 -222 -5 -47 -47 -41 -87 40 -265
67 -146 567 -1250 630 -1390 17 -38 31 -73 31 -78 0 -15 -65 -38 -113 -39 -24
-1 -102 6 -174 16 -156 22 -196 14 -225 -45 -23 -46 -25 -220 -2 -305 31 -122
125 -233 241 -288 65 -30 74 -32 193 -32 142 0 144 1 394 102 238 96 332 114
486 93 118 -16 215 -56 376 -157 243 -151 390 -209 609 -240 127 -18 227 -13
379 18 137 27 248 67 439 155 285 132 363 141 624 73 179 -47 310 -59 407 -39
80 16 232 96 341 178 138 103 169 166 124 252 -20 37 -36 51 -92 80 -37 19
-102 59 -145 88 -42 29 -125 77 -184 105 -59 29 -107 57 -108 64 0 11 239 518
543 1148 203 423 207 432 207 482 0 58 -25 99 -75 123 -51 25 -72 25 -215 0
-225 -40 -756 -132 -835 -144 -44 -8 -84 -11 -90 -9 -5 2 -48 52 -95 111 -47
59 -231 282 -409 497 -569 685 -596 718 -664 810 -36 50 -75 100 -86 113 -24
26 -76 30 -109 6z m484 -733 c526 -631 684 -825 676 -832 -4 -3 -74 -19 -157
-34 -82 -15 -163 -31 -180 -36 -16 -5 -134 -27 -261 -49 -127 -22 -267 -47
-310 -55 -44 -8 -89 -15 -101 -15 l-23 0 0 722 c0 612 2 720 14 708 7 -8 161
-192 342 -409z m-506 -340 l0 -708 -112 -22 c-62 -12 -184 -35 -271 -52 l-158
-31 -107 25 c-343 79 -428 100 -435 107 -5 4 121 173 280 376 159 203 392 502
517 664 208 268 274 350 283 350 2 0 3 -319 3 -709z m2420 -467 c0 -4 -42 -90
-93 -193 -51 -102 -119 -242 -152 -311 -114 -243 -159 -338 -297 -625 -77
-159 -154 -321 -171 -358 -28 -64 -32 -68 -56 -62 -14 3 -75 9 -136 12 -193 9
-331 -24 -560 -137 -155 -76 -204 -88 -291 -70 -114 24 -201 74 -384 219 -291
232 -502 332 -770 368 -250 33 -532 -29 -749 -164 -73 -46 -131 -91 -305 -235
l-33 -28 -43 98 c-43 98 -501 1108 -580 1280 -24 50 -40 95 -36 99 3 4 44 -3
89 -15 120 -33 1222 -304 1429 -352 l178 -41 132 25 c319 59 665 122 1108 201
261 46 522 93 580 104 58 11 269 47 470 81 201 34 424 71 495 84 141 26 175
29 175 20z m-2849 -1343 c64 -15 215 -69 269 -96 78 -40 220 -139 365 -254
209 -166 354 -231 520 -231 102 1 142 13 315 95 222 106 275 120 435 120 96 0
147 -5 195 -19 111 -31 277 -119 394 -207 l109 -83 -38 -32 c-20 -19 -62 -50
-91 -70 l-54 -37 -57 62 c-64 68 -196 152 -276 176 -148 44 -302 26 -482 -57
-221 -102 -354 -130 -514 -109 -210 27 -358 102 -666 335 -195 148 -362 215
-559 224 -179 8 -328 -27 -480 -112 -132 -74 -141 -103 -19 -61 62 22 103 28
201 32 264 12 459 -53 722 -239 238 -168 374 -239 556 -292 164 -46 375 -45
552 4 37 10 68 17 70 15 8 -7 -160 -65 -238 -81 -120 -26 -404 -26 -511 -1
-163 38 -340 120 -533 247 -164 108 -227 141 -344 180 -118 39 -237 53 -349
40 -123 -14 -180 -33 -313 -103 -204 -107 -224 -116 -289 -133 -47 -12 -97
-15 -190 -12 -124 3 -127 4 -199 42 -65 35 -160 121 -148 134 3 2 43 -1 90 -8
108 -17 235 -8 304 19 72 29 141 77 302 210 211 175 315 236 487 286 141 41
329 48 464 16z m-243 -656 c93 -22 165 -55 350 -162 92 -53 199 -111 239 -129
166 -76 342 -124 455 -124 80 0 62 -17 -25 -24 -99 -8 -248 6 -377 36 -76 18
-141 45 -320 133 -359 178 -473 215 -662 216 -60 1 -108 3 -108 5 0 8 69 38
115 50 70 17 257 17 333 -1z"/>
<path d="M3407 3223 c-20 -19 1 -61 88 -174 150 -195 150 -196 172 -183 38 23
22 58 -100 213 -110 141 -138 166 -160 144z"/>
<path d="M2560 3351 c-15 -29 -14 -563 2 -579 18 -18 46 -14 58 7 6 12 10 124
10 295 0 262 -1 276 -19 286 -28 15 -39 13 -51 -9z"/>
</g>
</svg>
